<svg width="552" height="664" viewBox="0 0 552 664" fill="none" xmlns="http://www.w3.org/2000/svg">
<rect x="2" y="2" width="548" height="662" fill="#0C0C0C"/>
<line x1="2.77032" y1="1.36234" x2="550.77" y2="663.362" stroke="black" stroke-width="2"/>
<line y1="-1" x2="859.388" y2="-1" transform="matrix(-0.637663 0.770315 0.770315 0.637663 550 2)" stroke="black" stroke-width="2"/>
<path d="M186.934 322.362H186.808V333H185.44V320.436H187.582L191.866 330.966H191.992V320.436H193.36V333H191.218L186.934 322.362ZM200.193 333.216C199.425 333.216 198.765 333.072 198.213 332.784C197.661 332.484 197.205 332.058 196.845 331.506C196.485 330.954 196.221 330.276 196.053 329.472C195.885 328.668 195.801 327.75 195.801 326.718C195.801 325.698 195.885 324.786 196.053 323.982C196.221 323.166 196.485 322.482 196.845 321.93C197.205 321.378 197.661 320.958 198.213 320.67C198.765 320.37 199.425 320.22 200.193 320.22C200.961 320.22 201.621 320.37 202.173 320.67C202.725 320.958 203.181 321.378 203.541 321.93C203.901 322.482 204.165 323.166 204.333 323.982C204.501 324.786 204.585 325.698 204.585 326.718C204.585 327.75 204.501 328.668 204.333 329.472C204.165 330.276 203.901 330.954 203.541 331.506C203.181 332.058 202.725 332.484 202.173 332.784C201.621 333.072 200.961 333.216 200.193 333.216ZM200.193 331.902C200.697 331.902 201.123 331.806 201.471 331.614C201.819 331.41 202.107 331.128 202.335 330.768C202.563 330.408 202.725 329.976 202.821 329.472C202.929 328.956 202.983 328.38 202.983 327.744V325.692C202.983 325.068 202.929 324.498 202.821 323.982C202.725 323.466 202.563 323.028 202.335 322.668C202.107 322.308 201.819 322.032 201.471 321.84C201.123 321.636 200.697 321.534 200.193 321.534C199.689 321.534 199.263 321.636 198.915 321.84C198.567 322.032 198.279 322.308 198.051 322.668C197.823 323.028 197.655 323.466 197.547 323.982C197.451 324.498 197.403 325.068 197.403 325.692V327.744C197.403 328.38 197.451 328.956 197.547 329.472C197.655 329.976 197.823 330.408 198.051 330.768C198.279 331.128 198.567 331.41 198.915 331.614C199.263 331.806 199.689 331.902 200.193 331.902ZM217.891 333V331.794H221.023V321.642H217.891V320.436H225.667V321.642H222.535V331.794H225.667V333H217.891ZM235.362 326.7V322.722H235.218L232.572 329.184L229.926 322.722H229.782V326.7V333H228.396V320.436H230.34L232.554 325.98H232.662L234.876 320.436H236.748V333H235.362V326.7ZM246.623 333L245.561 329.418H241.151L240.089 333H238.523L242.375 320.436H244.373L248.225 333H246.623ZM243.437 322.038H243.275L241.511 328.104H245.201L243.437 322.038ZM256.75 331.326H256.66C256.552 331.566 256.426 331.8 256.282 332.028C256.138 332.256 255.952 332.46 255.724 332.64C255.508 332.808 255.244 332.946 254.932 333.054C254.62 333.162 254.248 333.216 253.816 333.216C252.448 333.216 251.428 332.664 250.756 331.56C250.096 330.456 249.766 328.872 249.766 326.808C249.766 324.648 250.132 323.01 250.864 321.894C251.596 320.778 252.724 320.22 254.248 320.22C254.836 320.22 255.346 320.298 255.778 320.454C256.21 320.61 256.576 320.82 256.876 321.084C257.188 321.348 257.446 321.648 257.65 321.984C257.854 322.308 258.022 322.638 258.154 322.974L256.858 323.568C256.75 323.292 256.624 323.034 256.48 322.794C256.348 322.542 256.18 322.326 255.976 322.146C255.784 321.954 255.55 321.804 255.274 321.696C254.998 321.588 254.674 321.534 254.302 321.534C253.294 321.534 252.55 321.912 252.07 322.668C251.602 323.424 251.368 324.432 251.368 325.692V327.636C251.368 328.272 251.416 328.854 251.512 329.382C251.608 329.898 251.764 330.348 251.98 330.732C252.208 331.116 252.496 331.416 252.844 331.632C253.204 331.836 253.642 331.938 254.158 331.938C254.974 331.938 255.61 331.692 256.066 331.2C256.522 330.708 256.75 330.072 256.75 329.292V327.996H254.104V326.79H258.154V333H256.75V331.326ZM261.171 333V320.436H268.911V321.75H262.683V325.98H268.695V327.294H262.683V331.686H268.911V333H261.171ZM286.501 333.216C285.373 333.216 284.449 333.012 283.729 332.604C283.009 332.184 282.415 331.65 281.947 331.002L283.045 330.102C283.537 330.714 284.053 331.17 284.593 331.47C285.145 331.77 285.799 331.92 286.555 331.92C287.467 331.92 288.163 331.71 288.643 331.29C289.123 330.87 289.363 330.282 289.363 329.526C289.363 328.914 289.189 328.44 288.841 328.104C288.493 327.756 287.887 327.51 287.023 327.366L285.619 327.132C285.007 327.024 284.491 326.862 284.071 326.646C283.663 326.43 283.333 326.172 283.081 325.872C282.829 325.56 282.649 325.224 282.541 324.864C282.433 324.492 282.379 324.108 282.379 323.712C282.379 322.56 282.757 321.69 283.513 321.102C284.269 320.514 285.289 320.22 286.573 320.22C287.581 320.22 288.427 320.388 289.111 320.724C289.807 321.06 290.365 321.534 290.785 322.146L289.723 323.064C289.375 322.608 288.955 322.236 288.463 321.948C287.971 321.66 287.335 321.516 286.555 321.516C285.703 321.516 285.049 321.696 284.593 322.056C284.137 322.416 283.909 322.956 283.909 323.676C283.909 324.24 284.077 324.702 284.413 325.062C284.761 325.41 285.379 325.662 286.267 325.818L287.617 326.052C288.229 326.16 288.745 326.322 289.165 326.538C289.585 326.754 289.921 327.012 290.173 327.312C290.437 327.612 290.623 327.948 290.731 328.32C290.839 328.692 290.893 329.082 290.893 329.49C290.893 330.654 290.509 331.566 289.741 332.226C288.985 332.886 287.905 333.216 286.501 333.216ZM293.55 333V320.436H301.29V321.75H295.062V325.98H301.074V327.294H295.062V331.686H301.29V333H293.55ZM304.883 333V320.436H306.395V331.686H312.353V333H304.883ZM315.136 333V320.436H322.876V321.75H316.648V325.98H322.66V327.294H316.648V331.686H322.876V333H315.136ZM330.123 333.216C328.587 333.216 327.441 332.658 326.685 331.542C325.941 330.426 325.569 328.818 325.569 326.718C325.569 324.618 325.941 323.01 326.685 321.894C327.441 320.778 328.587 320.22 330.123 320.22C330.699 320.22 331.197 320.298 331.617 320.454C332.037 320.61 332.397 320.82 332.697 321.084C332.997 321.348 333.249 321.648 333.453 321.984C333.657 322.308 333.837 322.638 333.993 322.974L332.697 323.568C332.589 323.292 332.463 323.034 332.319 322.794C332.175 322.542 332.001 322.326 331.797 322.146C331.605 321.954 331.371 321.804 331.095 321.696C330.831 321.588 330.507 321.534 330.123 321.534C329.127 321.534 328.383 321.912 327.891 322.668C327.411 323.424 327.171 324.432 327.171 325.692V327.744C327.171 329.004 327.411 330.012 327.891 330.768C328.383 331.524 329.127 331.902 330.123 331.902C330.507 331.902 330.831 331.848 331.095 331.74C331.371 331.632 331.605 331.488 331.797 331.308C332.001 331.116 332.175 330.9 332.319 330.66C332.463 330.408 332.589 330.144 332.697 329.868L333.993 330.462C333.837 330.81 333.657 331.146 333.453 331.47C333.249 331.794 332.997 332.088 332.697 332.352C332.397 332.616 332.037 332.826 331.617 332.982C331.197 333.138 330.699 333.216 330.123 333.216ZM341.258 321.75V333H339.746V321.75H335.552V320.436H345.452V321.75H341.258ZM347.515 333V320.436H355.255V321.75H349.027V325.98H355.039V327.294H349.027V331.686H355.255V333H347.515ZM358.398 320.436H361.908C363.444 320.436 364.59 320.964 365.346 322.02C366.102 323.076 366.48 324.642 366.48 326.718C366.48 328.794 366.102 330.36 365.346 331.416C364.59 332.472 363.444 333 361.908 333H358.398V320.436ZM361.836 331.686C362.844 331.686 363.6 331.338 364.104 330.642C364.62 329.946 364.878 328.962 364.878 327.69V325.746C364.878 324.474 364.62 323.49 364.104 322.794C363.6 322.098 362.844 321.75 361.836 321.75H359.91V331.686H361.836Z" fill="white"/>
</svg>
